<svg xmlns="http://www.w3.org/2000/svg" width="30" height="30" viewBox="0 0 30 30">
  <path fill="rgb(79,79,79)" fill-rule="evenodd" d="M-124.28000003-2.998h27.95999837v15.8199997h-1.44999886c-.3518734-.0067091-.6973629.09449481-.98999977.29000091v-.29000092h-2.13000107c-.34314727-.01125335-.68047332.0906477-.95999908.29000092v-.29000092h-3.8199997v.29000092c-.32479286-.1981163-.69965553-.29877377-1.07999992-.29000092h-2.53000069v.29000092c-.32342529-.21804905-.71111106-.32025719-1.09999942-.29000092h-2.8399992l-.6600008.7329998-.59999943-.7329998h-4.22000027v4.75699997h4.14999962l.67000008-.73399925.6100006.73399925h2.57999993v-1.11400032h.23999977c.3754425.0273571.7520895-.0332489 1.09999943-.17700004v1.2880001h2.1100006v-1.24099922h.10999871c.13000107 0 .14999962 0 .14999962.15299988v1.0909996h6.42000008c.37482834.01411248.74491691-.08748817 1.06000137-.29100036v.29100036h2.039999c.39073563.0074215.7788086-.06576728 1.1399994-.21500015v8.69200134h-27.95999837v-14.3230009h1.3599999l.30000018-.77299977h.67999983l.28000021.77299977h2.64999962v-.58300019l.24000073.58300019h1.37999916l.2300005-.6079998v.6079998h6.56999969V10.4679996h.1100006c.09999944 0 .1199999.02500058.1199999.1760006v1.08899975h3.40999889v-.29199982c.38869858.20191383.82210922.30235481 1.26000023.29199982h1.4300003l.29999924-.77299977h.6800003l.29999924.77299977h2.74000168v-.72200013l.4299984.72200013h2.20000076V6.98800006h-2.17000008v.55700016l-.34000015-.55700016h-2.21999931v.55700016l-.28000069-.55700016h-3.03000069c-.4492092-.02756119-.89771652.0642109-1.29999923.2659998v-.2659998h-2.10000038v.2659998c-.25293732-.1968937-.57050133-.29180623-.8899994-.2659998h-7.60999965l-.52999973 1.19999981-.52999974-1.1999998h-2.39000034v.54300021l-.27999973-.55700016H-123.32l-.96000004 2.25300026V-2.998zm14.0599997 10.64400005c.32133198-.03604602.64640332.0165186.93999958.15200043v-.0010004c.27702141.15445041.44046975.45449447.42000008.77100086.00861359.38742256-.21607018.7421875-.5699997.89999962.15096474.06030178.28242875.16097545.37999917.29100036.1250553.17566109.1786766.3922863.14999961.605999v.67200088h-.80999946v-.4300003c.03342628-.22576714-.0050602-.4563284-.1099987-.6590004-.1716385-.12015152-.38267899-.17022896-.59000111-.13999939h-.8399992v1.2290001h-.77000046V7.64600004h1.8000002zm10.78999997 3.3909998h1.13000106V7.65499988h-.81000137v2.35299969l-1.37999916-2.3529997h-1.22000122v3.19999982l-1.3199997-3.19999981h-1.15999984l-1.12999916 2.66899967h-.35000039c-.19406318.0137806-.38637542-.04462624-.54000091-.16399956-.15812874-.23913383-.23202324-.52415943-.20999909-.80999946-.02519798-.27422142.049366-.54832936.20999909-.77200032.16983604-.14219093.3894596-.21059894.6100006-.19000053h.75v-.74199963h-.75c-.43729018-.04197216-.87225532.10047913-1.20000075.39299965-.5525856.78290844-.56056023 1.82674122-.01999855 2.61800003.3214035.2676859.73238182.40348816 1.14999961.38000012h.92000008l.29999924-.74699974h1.63999939l.31000137.74699974h1.59000015V8.49399963l1.47999955 2.54300022zm-13.14999962-.697999h-1.84000016v-.68200016h1.80999947v-.69999981h-1.80999947v-.60800076h1.84000016v-.70699978h-2.63000012v3.3909998h2.63000012v-.6939993zm-4.5-2.69400025h1.27999973v3.40100003h-.8000002v-2.658l-1.14999961 2.658h-.67000008l-1.1500001-2.658v2.64799977h-1.5999999l-.28999996-.74699974h-1.65999985l-.2900002.74699974h-.83999991l1.4000001-3.3909998h1.15999984l1.3499999 3.19999981v-3.1999998h1.26000024l1.02999973 2.30000018.97000027-2.30000019zm9.46000099.00099945h-.79000092v3.3909998h.79000092v-3.3909998zm-15.22000098 1.92199993l.55999994-1.342.52999997 1.342h-1.08999991zm19.74999976 0l-.53999901-1.342-.54000092 1.342h1.07999993zm-7.18999958-.4680004c.13473606.01572608.27102756-.0108328.39000034-.07599927.1072197-.06233692.166399-.18306541.14999962-.3060007.01179123-.12460519-.04583168-.2456131-.14999962-.31499959-.1250534-.04387664-.25786972-.06124496-.39000034-.05099964h-.97000027v.7479992h.97000027zm-.08000088 4.3979988h-2.5l-1.0199995 1.11300087-.94999981-1.11300087h-3.17000008v3.3920002h3.11999989l1-1.11400032.97000026 1.11400032h1.51000023v-1.13899994h.98999977c.33939171.07518006.69444657-.01163864.96085167-.23494911.2664051-.22330856.41389847-.55774498.39914894-.90505028.01013375-.33430671-.13238144-.65506553-.38726806-.87162208-.25488663-.21655655-.59445381-.30538369-.92273331-.24137879zm10.01000023 1.33100128c.32865333-.02462577.65519714.0697899.92000008.26600075.15806007.21131325.2392044.47027207.22999954.73399925.01416015.32048417-.12051773.6295395-.36489678.83736039-.24437904.20781898-.57105446.29109954-.88510322.22563934h-1.51000023v-.71999931h1.51000023c.10897255.00891876.21786499-.01812935.30999946-.07699967.05955124-.05627823.09532929-.13319778.10000038-.21500015.0008793-.0908928-.03521537-.17824173-.10000038-.24200058-.07950592-.06151962-.18038559-.08854103-.27999878-.07500076-.0470848-.0016346-.09502601-.00294876-.1435089-.00427819-.69288636-.01899337-1.4964924-.04102134-1.4964924-1.04572105-.00976943-.292696.11055375-.5746994.3286171-.77018547.21806526-.19548607.51148987-.2843914.80138398-.24281502h1.55999946v.72100067h-1.44000053c-.1061287-.01674843-.2148285.00113488-.30999947.0510006-.08546448.05973053-.1314869.1613655-.11999893.26499939-.00484657.10660553.05986977.2040863.15999985.24099922.09725761.03038979.19816398.04754448.29999923.0510006h.4300003zm4.22000122 1c.0150299.31884003-.11789513.62677956-.3602314.83452416-.24233627.2077446-.56697083.29205131-.87976837.22847557h-1.52000046v-.71999931h1.52000046c.10599327.0110836.21244621-.01623917.29999924-.07699967.05955123-.05627823.09532928-.13319778.10000038-.21500015.00087928-.0908928-.03521538-.17824173-.10000038-.24200058-.07950592-.06152153-.1803856-.08854294-.27999878-.07500076-.04708481-.0016346-.09502411-.00294876-.1435051-.00427819-.69288826-.01899337-1.4964962-.04102134-1.4964962-1.04572105-.00424767-.29096413.1177044-.56951523.3343811-.7637558.21667671-.19424248.50684738-.2851429.79561997-.24924469h1.55999946v.72100067h-1.44000053c-.1061287-.01674843-.2148304.00113297-.30999947.0509987-.0743122.06838416-.1176281.16404151-.12000084.26500129-.00484466.10660553.05987168.2040863.16000176.24099922.1006794.03038788.2048893.04753303.30999946.0510006h.42000008c.32882118-.02627564.65593529.06830406.92000008.26599883.16249847.2090168.2441616.46962739.22999954.73400116zm-10.74000168-2.33000183c.33194542-.02694702.66536522.02942467.97000122.16400147v-.00100136c.26737404.15532875.41972351.4522152.3899994.76000023.01959418.3875084-.20370294.74637985-.55999947.89999962.16072654.05230903.30075454.15418052.39999961.29100036.10152436.18986702.1433487.4059658.12000084.62000084v.65799904h-.78000068v-.40499878c.0264473-.23588562-.01885796-.47426605-.12999916-.68400001-.16087532-.1271286-.36728669-.18181038-.5700016-.15100098h-.84000016v1.23999977h-.79999924v-3.3920002h1.79999924zm4.43000221 2.69600106h-1.85000038v-.68499947h1.80999947v-.6819992h-1.80999947v-.62000085h1.85000038v-.70899963h-2.62000084v3.3920002h2.62000084v-.69600105zm-9.73000145-2.33799935l-1.21000003 1.32999993 1.21000003 1.40299987v-2.7329998zm1.81000042 1.20699883h-1.03999996v-.86100006h1.03999996c.1182356-.0253334.24152851.00575828.3336134.08412933.09208488.07836914.14248848.1951046.13638687.31587028.0099392.12631989-.03686905.25050736-.1277132.33883858-.09084511.08833313-.2162962.13163948-.34228707.11816216v.0039997zm3.43999958-.11399842c.12893868.010458.25860978-.00728797.37999916-.05200004.10586358-.08023644.16565133-.20728684.15999985-.34000015.00892449-.12037087-.05374527-.23474121-.15999985-.29199982-.11847305-.05551529-.2499504-.07731438-.37999916-.06300163h-.95000076v.77000045l.95000076-.0229988zm-8.36999893 1.23699952h-1.94000053V15.502h1.73999977v-.6819992h-1.73999977v-.62000085h1.97000027l.86999988.98800087-.89999962.99899865zm-10.0500009 9.33499908c.003475-.01699257-.00158435-.03461075-.01354605-.04717064-.0119617-.01255989-.02931196-.01847076-.04645396-.01582908h-.18v.13999938h.14999997c.02243722.00315857.04515016-.00346946.06236714-.01819992.01721698-.01473045.0272804-.03614425.0276329-.05879974z"/>
</svg>
