<svg xmlns="http://www.w3.org/2000/svg" xmlns:xlink="http://www.w3.org/1999/xlink" width="36" height="14" viewBox="0 0 36 14">
  <defs>
    <path id="path-8" fill-rule="evenodd" d="M-178.99228854-10.9853941h5.4566167v3.8110001h-5.4566167v-3.8110001z"/>
    <mask id="mask-9" maskContentUnits="userSpaceOnUse" maskUnits="userSpaceOnUse">
      <rect width="36" height="14" x="0" y="0" fill="black"/>
      <use fill="white" xlink:href="#path-8"/>
    </mask>
  </defs>
  <g>
    <path fill="rgb(79,79,79)" fill-rule="evenodd" d="M-173.3893865-7.90803969c.40433818-.13705744.83660831-.21082245 1.28652727-.21082245 1.96251326 0 3.60091846 1.41458486 3.9762081 3.2950261l2.78188695-.57582767c-.6383832-3.19547258-3.42108054-5.60032898-6.75809505-5.60032898-.76462631 0-1.49915958.12642037-2.18650925.35941253l.89998199 2.73254047z"/>
    <path fill="rgb(79,79,79)" fill-rule="evenodd" d="M-176.6723902 1.24159452l1.8812026-2.15854047c-.8397959-.75506789-1.36953076-1.85695562-1.36953076-3.08453264 0-1.22668146.52910455-2.32802089 1.36837819-3.08222977l-1.88165283-2.15868668C-178.10003602-7.96015222-179-6.08713134-179-4.00147859c0 2.08707833.90032416 3.9606658 2.3276098 5.2430731"/>
    <path fill="rgb(79,79,79)" fill-rule="evenodd" d="M-168.12745073-3.17515326c-.3768024 1.87932637-2.0136048 3.29122454-3.9753977 3.29122454-.45029714 0-.88368384-.07356397-1.28778789-.21151697l-.90111656 2.73360052c.68733167.23284595 1.4233777.3588825 2.18890446.3588825 3.3338269 0 6.11596598-2.40087206 6.75694247-5.59345691l-2.78154478-.57873368z"/>
    <path fill="rgb(79,79,79)" fill-rule="evenodd" d="M-163.20189095-1.39173794c.07471943.17633438.19851399.41605282.2896576.5658846l7.59205436-3.35776997c-.0455246-.11415673-.09206008-.24852705-.14502525-.37421608-.41613388-.98232174-.96382332-1.6769848-1.73666191-2.12695885-1.21659851-.73253226-2.6203289-.8418274-3.88965797-.28745651-1.00951195.44076252-1.79084969 1.30658722-2.1999073 2.43731594-.3721018 1.03121137-.35095978 2.10531807.08954047 3.14320087zm2.8248024-3.91433382c-.90136718.39315128-1.36605453 1.25120878-1.27044487 2.25736284l3.81832314-1.6678276c-.65660858-.78303147-1.51117134-1.04256153-2.54787827-.58953524zm3.02401734 3.62863207c-.00091744.00074863-.00144005.00146198-.0022335.0021925l-.07914925-.0541172c-.22781372.37529468-.58322144.67916488-1.03196907.87664508-.85353661.37673855-1.64445687.27989006-2.21247864-.22579097l-.05224419.08061885c-.00059318-.0008955-.00079155-.00160884-.00160217-.00160884l-.96865082 1.47067642c.24043846.16968155.49863243.3132267.76981354.42811489 1.07002258.45101547 2.16493416.43030834 3.2434578-.04578304.78022193-.34301854 1.39220237-.86639214 1.81067847-1.52949143l-1.47562217-1.00145626z"/>
    <path fill="rgb(79,79,79)" fill-rule="evenodd" d="M-152.66642141-9.13833995v8.17669452l1.2525983.51525848-.71167984 1.68544648-1.38267734-.5843081c-.31025913-.13634464-.52155878-.34499216-.68147874-.58068929-.15284242-.24022976-.26727164-.56970496-.26727164-1.01337337v-8.19902872h1.79050926z"/>
    <path fill="rgb(79,79,79)" fill-rule="evenodd" d="M-149.42144192-3.04459138c.0008104-.6963081.30355978-1.3206423.7830135-1.74499217l-1.28505052-1.4542637c-.87158179.781953-1.4206043 1.92441514-1.42157679 3.19730025-.00144072 1.27336032.5468074 2.4171201 1.41750676 3.20102872l1.2836098-1.45572585c-.47702251-.42614099-.77802501-1.0486658-.77750275-1.74334725"/>
    <path fill="rgb(79,79,79)" fill-rule="evenodd" d="M-147.1380082-.72394334c-.25302652-.00074935-.49665233-.04311488-.72394398-.11993212l-.6138009 1.8519295c.4193937.1429974.86868234.22072847 1.3357999.22147781 2.03483742.00195562 3.733987-1.46332898 4.1275918-3.4111932l-1.88646123-.3909765c-.21455928 1.0561227-1.13566583 1.84959007-2.2391856 1.8486945"/>
    <g transform="translate(-148.47473737 -7.3293316)">
      <use fill="none" xlink:href="#path-8"/>
      <g mask="url(#mask-9)">
        <path fill="rgb(35,31,32)" fill-rule="evenodd" d="M-177.65774927-10.98539138c-.46646924-.00053003-.91552377.07646997-1.33453927.21804177l.60827213 1.85353786c.227994-.0764517.4715838-.11863446.72428614-.11863446 1.1061851.00106005 2.02792197.7992611 2.23742072 1.85805222l1.88664132-.38828982c-.38809405-1.9505692-2.08567684-3.42126371-4.12208104-3.42270757"/>
      </g>
    </g>
  </g>
</svg>
