<svg xmlns="http://www.w3.org/2000/svg" width="42" height="19" viewBox="0 0 42 19">
  <path fill="rgb(79,79,79)" fill-rule="evenodd" d="M-227.47000027-8h-4.3499999c-1.92999983.08899999-3.49999976.852-3.94999981 2.4249999-.24000001.81999993-.37000012 1.72100019-.55999994 2.5710001-.94000006 4.32400035-1.7700001 8.76599979-2.67000008 13h33.88999939c2.61999893 0 4.42000198-.54500008 4.90000153-2.59300042.22999954-.95099926.43999862-2.02799988.65999984-3.07299995C-198.70999908.25600023-197.8600006-3.81700021-197-8.00400001h-30.47000027V-8zm25.8399992 11.57900017h-.83000183c.01332092-.21799087.04340744-.43463134.09000015-.64800071-.07712555.05017853-.1365776.12327194-.16999817.20899963-.09134292.11892891-.19908142.22430992-.31999969.31300068-.72223663.38269234-1.60128784.3092432-2.25-.18800068-.23314285-.29629516-.34725952-.66896248-.3199997-1.04500007-.03000259-1.99999905 1.34999848-3.62499857 3.59000016-2.92699862.12999725-.61900043.23999786-1.26800013.3199997-1.94400024h.90999984c-.45832825 2.05589103-.79888535 4.13627672-1.02000046 6.23099947v-.00099946zm-26.45999908-6.16800022c-.14081002.0110736-.27092457.07938385-.35999966.18900013-.15733337.23750162-.1726675.54188872-.03999996.79400015.20976639.12378597.47023296.12378597.67999935 0 .2712946-.2269988.33513927-.6185832.15000057-.92000007-.12759876-.0818739-.28427791-.10482884-.4300003-.0630002zm-3.38999987 6.16800022c.16000033-1.02400016.36999989-2 .54999971-3.01100063-.9356041-.05780601-1.87366676-.06448269-2.80999946-.0199995-.21000004.97200012-.36000013 2.00699997-.53000021 3.03100013h-1.03999996c.40999984-2 .74000025-4.0669999 1.11000013-6.0999999h1.01999998c-.17000007.8000002-.30000019 1.64700031-.47000027 2.4460001.72792292.05359459 1.49423647.0412817 2.2529626.02909088.18973302-.0030489.3789854-.00609016.56703758-.00809097.14999961-.8170004.30000019-1.6329999.4300003-2.46700001h1.05999947c-.42000008 1.98600006-.77000046 4.03700018-1.10000038 6.0999999h-1.03999949zm15.36999941-.83699989c.32999992 1.05900002 1.79999924 1.11699963 2.98999977.7109995v.0010004c.05999947-.2119999.07999992-.45400048.13000107-.67000008-.65000153.33300018-1.90000153.50699997-2.19000054-.2300005-.07866477-.27122116-.10579872-.55478191-.07999992-.83599949.02614594-.60718822.23918724-1.19148254.6099987-1.67300033.65559388-.4061408 1.47210885-.45317507 2.17000199-.12499952.01999855-.2489996.0699997-.47099972.1099987-.71100045-1.02622223-.421988-2.20449638-.20342731-3.01110458.55853749-.8066082.76196432-1.09183312 1.92589998-.72889519 2.97446298zm-5.98999977-1.50500107c.98999977-.03099918 2.01000023-.02499961 3 0v.0010004c.13593101-.45430564.16333198-.93417358.07999992-1.40099954-.3510723-.58139896-1.04303169-.86225319-1.70000076-.68999958-.59907723.00575352-1.17396927.2371378-1.6099987.64799977-.5943699.74189805-.871171 1.68877267-.77000046 2.63399934.17000007 1.44500065 2 1.39599991 3.46000099 1.04500008.02999878-.25400066.09000015-.47099972.12999916-.71099949-.70635033.35137749-1.52422905.40434074-2.27000046.14699936-.43146896-.44357967-.557312-1.10150051-.3199997-1.67300034zm-2.5899992 2.21600151c-.5699997.30599976-1.93999958.45699883-2.14000034-.33400058-.18999958.7529993-.27999974 1.59999942-.40999985 2.40000057h-.90999985c.40999985-2.06400108.8000002-4.14800072 1.11999989-6.29299975h.78999996c-.01000023.1399994-.05999947.23699952-.05999947.37599946.60920716-.44920826 1.39250374-.58998013 2.11999989-.38099957 1.5899992.59799957.67999935 3.60299921-.51000023 4.23299932v-.00099945zm16.06999874-1.88200092c-.13010788.66212654-.2070198 1.3336029-.22999954 2.00800037h-.78000069c-.01226044-.22472572.00794602-.45004367.06000138-.66900062-.5578766.71252441-1.51649476.97573852-2.36000062.64800072-.52693367-.35072995-.73220253-1.02518559-.48999977-1.61000061.32999993-1.06400013 1.55999947-1.31200028 3.07999993-1.17099953.09851265-.20832443.13662147-.44010162.1100006-.66900063-.15999984-.70799875-1.84000014-.29999876-2.38000106-.16699934.05999947-.2369995.13000107-.46199989.17000008-.71099949.19469451-.00540828.41701126-.02306842.65107536-.04166126 1.06433105-.08454609 2.37154388-.18838548 2.42892456.75266075-.02800179.55140925-.11516953 1.09821368-.26000023 1.63100005v-.0010004zm-8.85000038-.79400062c-.23224258.91906356-.38942719 1.85547733-.46999931 2.80000019h-.90999985c.28000069-1.4279995.5699997-2.84200001.76000023-4.3489995h.80999946c-.04999923.23900032-.07999992.5-.14999962.73200035.30667496-.6538868 1.0581131-.9700098 1.73999978-.73200035-.02000046.22700023-.09000016.40899944-.10000039.64900016-.34197235-.12498378-.7210369-.0980482-1.04190063.0740347-.32086563.17208242-.55301666.4729476-.63809967.82696485v-.0010004zm10.30000114 2.802001c.02493668-.5277195.09519577-1.05231667.210001-1.5680008v.0010004c.19999694-1.20699977.47999954-2.52999925 1.90999984-2.13299894.04999924-.20500087.0699997-.43600082.12999726-.62800026-.66573334-.25170803-1.4143715.03612995-1.73999787.66899968.0699997-.20499993.07999802-.4790001.14999771-.68999959h-.80999755c-.22000123 1.493999-.48000145 2.94199896-.79000092 4.3489995h.94000053zM-228.7699995-.70700056c-.19999981 1.48599958-.47000027 2.89300012-.76000023 4.28599977h.90999984c.22000027-1.49100017.47000027-2.94900036.78999997-4.3489995H-228.75c-.0199995.00399971-.0199995.033-.0199995.06299973zm7.99000072.39900016c-.60264587.01074315-1.11165047.45033694-1.210001 1.0449996h2.1399994c.20000076-.80899953-.26999855-1.06999921-.9299984-1.0449996zM-204.5 2.11099976c-.02000046-1.08300018.45999908-2.29099989 1.45000076-2.39999914v.00099945c.38100815-.03655624.76521302.01935864 1.11999893.1630001-.30999755 1.2189994-.18999862 3.18899966-1.63000106 3.2189994-.26351929.02328872-.52334214-.07445145-.70618058-.26565075-.18283462-.1911993-.26886367-.45513154-.23381805-.71734906zm-22.0199995-.85200023c.0699997-.3909998.13000011-.76500035.1999998-1.1079998.4800005-.5779996 1.89000035-.65099955 2.0300007.31299972.10552024.81695461-.1134863 1.64271545-.61000062 2.3000002-.48999977.51000022-1.68999958.50199985-1.78999996-.3550005.00349712-.389328.06070328-.77631188.17000008-1.14999962zm14.90999889.9829998c-.13000107 1.08400059 1.19000053.95499992 1.65999985.5.31583214-.42539883.50008964-.93402004.53000068-1.46299935C-210.5 1.14999932-211.5 1.34099931-211.6100006 2.24199933z"/>
</svg>
