<svg xmlns="http://www.w3.org/2000/svg" width="44" height="36" viewBox="0 0 44 36">
  <g>
    <rect width="43.94" height="35.824" x="-58" y="0" fill="none" rx="0" ry="0"/>
    <path fill="rgb(51,51,51)" fill-rule="evenodd" d="M-20.28571272 31.30512428v-3.9748764h-.59864044v1.48760414c-.2144928-.27433014-.54866028-.42933845-.89796066-.4165306-.82654572 0-1.4965973.66602325-1.4965973 1.48760413 0 .82158089.67005158 1.48760414 1.4965973 1.48760414.34930038.01280785.68346786-.14220047.89796066-.4165306v.3451252h.59864044zm-18.55782509-2.83239746h1.02367401l.00598526.56528855h-1.01768684v1.2971897c0 .28562165.11374092.47603417.41306114.47603417.1942978-.00639534.38378906-.06167412.55074883-.1606617l.17959213.5295868c-.23337746.14476776-.5031395.2210846-.77823257.22016525-.73632622 0-.99374009-.3927269-.99374009-1.05322266v-1.30909156h-.58068084v-.56528855h.5687065v-.86281013h.62857247v.86281013zm7.3918171 2.49522019c-.29054451-.28313446-.44760514-.6748581-.43263245-1.07902146v-.01189995c-.01497269-.40416336.14208794-.79588699.43263245-1.07902145.2905426-.28313446.68766784-.43146515 1.09389877-.40858269.37381363-.01890373.74118423.10210991 1.02965927.33917427l-.29932022.49983406c-.2152195-.16313362-.47765923-.25287056-.74829865-.255867-.47720527.03837967-.84480285.43452644-.84480285.91041374 0 .4758854.36759758.87203217.84480285.91041184.27063942-.00299645.53307915-.09273339.74829865-.255867l.29932022.49983405c-.28847504.23706436-.65584564.358078-1.02965927.33917427-.40623093.02288247-.80335617-.12544822-1.09389877-.40858268zm-1.05821038-2.5666256c-.30922127-.00903892-.59864425.15078545-.75428581.41653061v-.3451252h-.61659813v2.84429741h.6225853v-1.5947094c0-.47008323.20353698-.73190116.59863853-.73190116.13316345-.00181199.26538277.0224514.38911629.0714054l.19156456-.59504318c-.14218521-.05055809-.29198456-.07671737-.44299316-.07735443l.01197242.01189995zm8.6473446 0c-.30922318-.00903892-.59864426.15078545-.75428391.41653061v-.3451252h-.61660004v2.84429741h.6225853v-1.5947094c0-.47008323.20353698-.73190116.59864044-.73190116.13315964-.00181199.26538086.0224514.38911438.0714054l.19156647-.59504318c-.14218903-.05055809-.29198838-.07671737-.44299317-.07735443l.01197052.01189995zm-23.2571416 1.130579v1.78512382l-.6285715.01190186v-1.58281136c0-.48198318-.203537-.74975204-.62857152-.74975204-.19935799-.00962067-.3927393.06915092-.52797508.2150631-.13523579.14591216-.19839287.3439331-.1724329.54063987v1.57686043h-.62857151v-1.58281136c0-.48198318-.2095232-.74975204-.62258482-.74975204-.19967318-.01070214-.39373207.06774139-.52921915.2139244-.1354866.14618302-.19825983.34484673-.17118883.54177857v1.56495857h-.62857151v-2.8442974h.62258482v.35107421c.18424987-.27856445.50313186-.43931007.83809566-.42247963.38470936-.01643562.74763966.177639.94585037.5057869.21740437-.33823395.60278035-.53204346 1.00571347-.5057869.30575466-.0178318.6044445.09597397.81986808.31237984.21542359.21640777.3267479.51448822.30557442.81819916zm5.41469431-1.130579c.4097538-.01401901.81493569.08925057 1.16734696.2975216l-.27537346.49983405c-.27339936-.1563263-.58257294-.24032592-.89795876-.24396705-.34122467 0-.54476356.14281082-.54476356.33322334 0 .19041252.21551132.24396706.48489952.2796688l.29931831.0416546c.6225853.08925437.99972916.30942153.99972916.85090827 0 .54148674-.47891236.92826462-1.30503464.92826462-.4421482.0120945-.87652397-.11722565-1.23918343-.3689251l.29931832-.48198509c.27468681.20256234.60995483.3073578.95183754.2975216.42503547 0 .65251732-.12495804.65251732-.3451233 0-.1606617-.16163254-.24991798-.50285721-.29752159l-.29932022-.04165268c-.64054299-.08925628-.98775483-.37487602-.98775483-.83900833 0-.56528854.4729252-.91041374 1.19727898-.91041374zm-1.90367317 2.90380287v-2.83239555h-.62258577v.34512329c-.21449185-.27432823-.54866028-.42933655-.89795971-.4165287-.82654858 0-1.49659825.66602135-1.49659825 1.48760223 0 .82158089.67004967 1.48760414 1.49659825 1.48760414.34929943.01280785.68346786-.14220047.8979597-.4165287v.3451233h.62258578zm17.5551033 0v-2.83239555h-.6225853v.34512329c-.21449089-.27432823-.54866027-.42933655-.89795875-.4165287-.82654953 0-1.4965992.66602135-1.4965992 1.48760223 0 .82158089.67004967 1.48760414 1.4965992 1.48760414.34929848.01280785.68346786-.14220047.89795875-.4165287v.3451233h.6225853zm-9.82966232-2.90380287c-.82654762.01150131-1.48721695.6868496-1.47564697 1.50843048.01157188.82157898.6910038 1.47827912 1.51755142 1.4667759.43064308.02197075.85414123-.11587143 1.18829918-.38677597l-.29931832-.4581833c-.23635483.18841363-.52916717.2931099-.83210945.2975216-.42791748.03657913-.80739021-.27203179-.8560543-.69619751h2.12516975v-.23801804c0-.89256096-.55673409-1.48760223-1.35891151-1.48760223l-.0089798-.00595093zm.50604248.7493496c-.1358509-.12945557-.31788826-.19994736-.50604057-.195961h-.01197243c-.4000473-.01357079-.73772621.2930069-.76027298.69024849h1.4965992c-.00392724-.18702317-.0824604-.36483193-.21831322-.4942875zm7.90286636-.07038498c-.47021675-.0175438-.86829567.34173011-.89598274.80863952-.01588059.23764992.06881523.47109223.23363876.64396477.16482354.17287064.39479637.26946259.63438988.26644897.470541-.00242996.85282517-.3782692.86042786-.84592819.0076065-.46765709-.36225891-.85558128-.83247376-.87312507zm-17.55510378.00595092c-.4702158-.01754379-.86829567.34173012-.89598083.80863953h-.00598622c-.01597976.23869896.06951142.4731121.23566246.64618301.166152.17307091.39772511.26892662.6383505.26423073.470541-.00242996.85282516-.3782692.86042976-.84592819.0076046-.46765709-.36225987-.85558128-.83247567-.87312508zm23.33795977 0c-.47021866-.01754379-.86829758.34173012-.89598084.80863953-.0158844.23764992.06881333.47109222.23363495.64396477.16482544.17287063.39479828.26946258.63439179.26644897.4705391-.00242996.85282516-.3782692.86042785-.84592819.00760651-.46765709-.3622589-.85558128-.83247375-.87312508zm2.5581646 1.83806038c-.0334053-.01313019-.06889344-.0201683-.10476304-.02080154-.04192352-.00170899-.0837326.00538635-.1227188.02080154-.03437424.01394272-.06584168.03412247-.0927887.05950547-.02630234.02565193-.04761124.05591201-.06285858.08925628-.03028489.07030106-.03028489.1498623 0 .22016525.04864502.10448266.15356445.1716938.26938629.17256165.0391693.00002098.07790756-.00808525.11374283-.0238018.03437423-.01394272.06584167-.03412056.0927887-.05950356.02630233-.02565384.04761123-.05591202.06285857-.08925629.03063965-.07023048.03063965-.14993667 0-.22016525-.01524734-.03334427-.03655624-.06360435-.06285858-.08925628-.02694702-.025383-.05841446-.04556275-.0927887-.05950547zm-.11114502.48198319c.0289917-.00017548.05765152-.00624657.08420562-.01785088.02575303-.01142883.04911042-.02757835.06884385-.0476036.07761383-.0841713.07761383-.2133503 0-.29751969-.01968766-.02008057-.04305268-.03623772-.06884385-.0476036-.02737426-.01186562-.05693435-.01794434-.08679962-.01785088-.02984237.0001564-.05935287.00622368-.08680343.01785087-.02689362.01095963-.05131531.02714348-.07183838.04760361-.07761002.08416939-.07761002.21334839 0 .29751968.02057266.0203972.0449829.03657341.07183838.04760361.03019714.01294518.0629158.01904297.09578323.01785088h-.0063858zm.09318542-.33024788c-.0223465-.01672745-.04988098-.0251484-.07782364-.0238018l-.12571335.00297546v.26181793h.05686951v-.09818268h.0269394l.08081817.09818268h.06884384l-.08680344-.09818268c.02337647-.00168419.04550934-.01111221.06285859-.02677536.01421737-.01414871.02182006-.03357506.02095031-.05355453.00167847-.02392578-.00835037-.0471878-.02693939-.06247902zm-.14366913.02677727v.0714054h.0658493c.01171876.00347329.02420045.00347329.0359192 0 .00426864-.00842094.00426864-.01835632 0-.02677726.00426864-.00842094.00426864-.01835632 0-.02677727-.01171875-.00347137-.02420044-.00347137-.0359192 0l-.0658493-.01785087z"/>
    <g transform="translate(-53.51020408 4.46280992)">
      <rect width="9.429" height="16.843" x="-45.234" y="2.336" fill="rgb(72,72,72)" rx="0" ry="0"/>
      <path fill="rgb(79,79,79)" fill-rule="evenodd" d="M-44.63537415 10.7583471c-.0035252-3.28715932 1.51421175-6.39325955 4.11564626-8.42280991-4.41802194-3.45122426-10.76247863-2.9485236-14.57465641 1.15481746-3.81217779 4.10334107-3.81217779 10.42966864 0 14.5330097 3.81217778 4.10334107 10.15663447 4.60604173 14.5746564 1.15481747-2.6006069-2.02890606-4.11825113-5.13371945-4.11564625-8.41983471z"/>
      <path fill="rgb(106,106,106)" fill-rule="evenodd" d="M-23.08435374 10.7583471c-.00009617 4.10084045-2.3558196 7.84164804-6.06668549 9.63368744-3.71086589 1.7920394-8.12538288 1.3206945-11.36868866-1.21385272 2.59947218-2.03062855 4.11723065-5.13502914 4.11723065-8.42132232 0-3.28629317-1.51775847-6.39069376-4.11723065-8.42132231 3.24330578-2.53454722 7.65782277-3.00589213 11.36868866-1.21385273 3.7108659 1.7920394 6.06658932 5.532847 6.06668549 9.63368744v.0029752z"/>
    </g>
  </g>
</svg>
