<svg xmlns="http://www.w3.org/2000/svg" width="35" height="12" viewBox="0 0 35 12">
  <path fill="rgb(79,79,79)" fill-rule="evenodd" d="M24.76998138-4.58869718c-.0211296 2.22886133-1.94087028 3.66799975-4.90998268 3.66799975-1.07318878.00486087-2.13793564-.18977738-3.13999939-.57399941l.3899994-2.40000057.37000083.17199993c.82924462.39653206 1.7412262.58921337 2.65999985.56200027.80999947 0 1.6800003-.32999992 1.6800003-1.04899978.01000023-.47000027-.3600006-.80600023-1.46000099-1.33100033-1.0699997-.5159998-2.48999977-1.375-2.46999931-2.91699982.01000023-2.08700001 1.97999954-3.54200004 4.77000046-3.54200004.86372757-.0056499 1.72119331.14686384 2.52999878.45l-.3899994 2.32699994-.25-.125c-.66566657-.28690267-1.38531493-.42708063-2.1100006-.41100002-1.1099987 0-1.61999894.477-1.61999894.9250002 0 .5.59999848.83500003 1.57999993 1.32999992 1.62999916.76499987 2.38999939 1.6999998 2.36998176 2.91499996zM.00054053-11.69458898c2.95783445.5920559 5.4277136 2.61604414 6.58945962 5.39989195l-.95000028-4.74200016c-.13265276-.55820269-.65948677-.9308414-1.23000002-.86999999H.03l-.02945947.2121082zm0 0L0-11.69069717v-.00399998l.00054053.00010819zm30.23945924-.1181082h2.1799984l2.29000091 10.72899964h-2.61999893S31.82999992-2.3146975 31.75-2.69069694l-3.62000084-.00699997c-.1099987.29099941-.58999824 1.61399937-.58999824 1.61399937h-2.960001l4.19000054-9.83599973c.22370529-.60247487.8322258-.97214067 1.46999931-.8929999zm-13.51999855-.004h-2.8200016l-1.7699995 10.7370003h2.81999969l1.77000141-10.7370003zm-3.960001.012L8.31000043-1.09069656h-2.9800005l-2.52999997-8.95100069c1.67433 1.1109984 3.0236361 2.64665413 3.91000009 4.45000029L7-4.48569702l2.7699995-7.32300016h2.99000073v.004zM30.0699997-7.89069675s-.88999938 2.3829999-1.12999916 3v.00099993h2.35000039c-.12000084-.53900003-.65999985-3.0999999-.65999985-3.0999999l-.19000054-.92600036c-.0696392.20046496-.16649818.46229458-.24380302.67126727-.07810402.21113086-.13624764.36830759-.12619782.35373306z"/>
</svg>
