<svg version="1.2" xmlns="http://www.w3.org/2000/svg" viewBox="0 0 752 752" width="100" height="100">
		<g>
			<path fill="#8761a1" fill-rule="evenodd" d="m751.2 375.9c0 7.9-0.2 15.8-0.8 23.5-10 161.9-123.2 296.4-274.4 338.2-31.8 8.8-65.4 13.6-100 13.6-206.9 0-375.2-168.4-375.2-375.3 0-206.9 168.3-375.2 375.2-375.2 206.9 0 375.2 168.3 375.2 375.2zm-78.5-54.2c-25.7-140.5-148.9-247.3-296.7-247.3-166.3 0-301.6 135.2-301.6 301.5 0 166.3 135.3 301.6 301.6 301.6 12.7 0 25.3-0.8 37.6-2.4 148.7-18.5 263.9-145.7 263.9-299.2 0-18.4-1.7-36.6-4.8-54.2z"/>
			<path fill="#8761a1"  d="m589.5 238.6c-21.6-21.6-56.6-21.6-78.1 0l-189.1 189-79.8-79.7c-21.5-21.6-56.5-21.6-78.1 0-21.5 21.5-21.5 56.5 0 78.1l118.8 118.8c10.4 10.4 24.5 16.2 39.1 16.2 14.7 0 28.7-5.8 39.1-16.2l228.1-228.1c21.6-21.6 21.6-56.6 0-78.1z"/>
		</g>
</svg>