<svg version="1.2" xmlns="http://www.w3.org/2000/svg" viewBox="0 0 752 752" width="20" height="20">
		<g >
			<path fill="#8761a1" fill-rule="evenodd"  d="m751.2 376c0 206.9-168.3 375.2-375.2 375.2-5.8 0-11.5-0.1-17.2-0.4-198.9-8.9-358-173.6-358-374.8 0-206.9 168.3-375.3 375.2-375.3 201.1 0 365.7 159.1 374.8 358 0.2 5.7 0.4 11.5 0.4 17.3zm-73.7 0c0-39.6-7.6-77.4-21.5-112-44.6-111-153.2-189.6-280-189.6-166.3 0-301.6 135.3-301.6 301.6 0 126.8 78.6 235.5 189.7 280 34.6 13.9 72.4 21.6 111.9 21.6 166.3 0 301.5-135.4 301.5-301.6z"/>
			<path fill="#8761a1"  d="m572 180c-21.6-21.6-56.6-21.6-78.1 0l-117.9 117.8-117.9-117.8c-21.5-21.6-56.5-21.6-78.1 0-21.6 21.6-21.6 56.5 0 78.1l117.9 117.9-117.9 117.8c-21.6 21.6-21.6 56.6 0 78.2 10.8 10.7 24.9 16.1 39.1 16.1 14.1 0 28.2-5.4 39-16.1l117.9-117.9 117.9 117.9c10.7 10.7 24.9 16.1 39 16.1 14.2 0 28.3-5.4 39.1-16.1 21.6-21.6 21.6-56.6 0-78.2l-117.9-117.8 117.9-117.9c21.6-21.6 21.6-56.5 0-78.1z"/>
		</g>
</svg>